# xmcd
#
# Track frame offsets:
#	150
#	16135
#	30070
#	44892
#	58632
#	73039
#	89613
#	101400
#	115472
#	127560
#	140863
#	156622
#	171862
#	180667
#
# Disc length: 2603 seconds
#
# Revision: 0
# Processed by: cddbd v1.5.1PL0 Copyright (c) Steve Scherf et al.
# Submitted via: audiograbber 1.83.01
#
DISCID=c10a290e
DTITLE=WALDICK SORIANO - MINHA ÚLTIMA NOITE
DYEAR=1900
DGENRE=
TTITLE0=CIÚMES
TTITLE1=ESTA NOITE EU QUERIA QUE O MUNDO ACABASSE
TTITLE2=O CONFORMADO
TTITLE3=OBRIGADO QUERIDA
TTITLE4=MEU CORAÇÃO ESTÁ DE LUTO
TTITLE5=VOLTA
TTITLE6=POBRE DOS POBRES
TTITLE7=MINHA ÚLTIMA NOITE
TTITLE8=FIM DE NOIVADO
TTITLE9=SENHORA
TTITLE10=PRIMEIRO AMOR
TTITLE11=FUI UM BESTA PRA VOCÊ
TTITLE12=PARA NUNCA MAIS CHORAR
TTITLE13=O QUE LHE PRENDE
EXTD=
EXTT0=
EXTT1=
EXTT2=
EXTT3=
EXTT4=
EXTT5=
EXTT6=
EXTT7=
EXTT8=
EXTT9=
EXTT10=
EXTT11=
EXTT12=
EXTT13=
PLAYORDER=
